<?xml version="1.0" encoding="UTF-8"?>
<svg id="Layer_1" data-name="Layer 1" xmlns="http://www.w3.org/2000/svg" viewBox="0 0 71.87 97.65">
  <defs>
    <style>
      .cls-1 {
        fill: #204531;
      }

      .cls-1, .cls-2 {
        stroke-width: 0px;
      }

      .cls-2 {
        fill: #faf8f7;
      }
    </style>
  </defs>
  <rect class="cls-1" width="65.4" height="65.4"/>
  <polygon class="cls-1" points="3.72 72.26 71.87 72.26 71.87 4.31 68.15 4.31 68.15 68.34 3.72 68.34 3.72 72.26"/>
  <polygon class="cls-2" points="26.24 9.99 26.24 50.52 45.63 50.52 45.63 43.28 33.88 43.28 33.88 33.55 45.81 33.55 45.81 26.07 33.79 26.07 33.79 17.53 45.81 17.53 45.81 9.99 26.24 9.99"/>
  <g>
    <path class="cls-1" d="M2.07,84.76h9.8v2.75h-6.13v2.05h5.69v2.63h-5.69v2.54h6.31v2.92H2.07v-12.88Z"/>
    <path class="cls-1" d="M17.34,84.76h3.41l4.45,7.13v-7.13h3.45v12.88h-3.45l-4.43-7.07v7.07h-3.44v-12.88Z"/>
    <path class="cls-1" d="M33.56,84.76h11.11v3.18h-3.73v9.7h-3.66v-9.7h-3.73v-3.18Z"/>
    <path class="cls-1" d="M49.78,84.76h3.66v12.88h-3.66v-12.88Z"/>
    <path class="cls-1" d="M58.56,84.76h4.03l2.09,3.96,2.04-3.96h3.99l-3.68,6.24,4.03,6.64h-4.11l-2.34-4.14-2.34,4.14h-4.08l4.08-6.71-3.71-6.17Z"/>
  </g>
</svg>